<mxfile host="app.diagrams.net" agent="Mozilla/5.0 (Windows NT 10.0; Win64; x64) AppleWebKit/537.36 (KHTML, like Gecko) Chrome/133.0.0.0 Safari/537.36 OPR/118.0.0.0 (Edition 360-1)" version="26.2.14">
  <diagram name="PÃ¡gina-1" id="8pnUF-smsVC603dwa3bq">
    <mxGraphModel dx="818" dy="440" grid="1" gridSize="10" guides="1" tooltips="1" connect="1" arrows="1" fold="1" page="1" pageScale="1" pageWidth="827" pageHeight="1169" math="0" shadow="0">
      <root>
        <mxCell id="0" />
        <mxCell id="1" parent="0" />
        <mxCell id="9VxYBBlHyfwKnt9s5blo-1" value="Figura" style="swimlane;fontStyle=1;align=center;verticalAlign=top;childLayout=stackLayout;horizontal=1;startSize=47.2;horizontalStack=0;resizeParent=1;resizeParentMax=0;resizeLast=0;collapsible=0;marginBottom=0;" vertex="1" parent="1">
          <mxGeometry x="80" y="20" width="119" height="102.2" as="geometry" />
        </mxCell>
        <mxCell id="9VxYBBlHyfwKnt9s5blo-2" style="line;strokeWidth=1;fillColor=none;align=left;verticalAlign=middle;spacingTop=-1;spacingLeft=3;spacingRight=3;rotatable=0;labelPosition=right;points=[];portConstraint=eastwest;strokeColor=inherit;" vertex="1" parent="9VxYBBlHyfwKnt9s5blo-1">
          <mxGeometry y="47.2" width="119" height="8" as="geometry" />
        </mxCell>
        <mxCell id="9VxYBBlHyfwKnt9s5blo-3" value="+dibujar()" style="text;strokeColor=none;fillColor=none;align=left;verticalAlign=top;spacingLeft=4;spacingRight=4;overflow=hidden;rotatable=0;points=[[0,0.5],[1,0.5]];portConstraint=eastwest;" vertex="1" parent="9VxYBBlHyfwKnt9s5blo-1">
          <mxGeometry y="55.2" width="119" height="47" as="geometry" />
        </mxCell>
        <mxCell id="9VxYBBlHyfwKnt9s5blo-4" value="RectanguloViejo" style="swimlane;fontStyle=1;align=center;verticalAlign=top;childLayout=stackLayout;horizontal=1;startSize=47.2;horizontalStack=0;resizeParent=1;resizeParentMax=0;resizeLast=0;collapsible=0;marginBottom=0;" vertex="1" parent="1">
          <mxGeometry x="79" y="440" width="120" height="102.2" as="geometry" />
        </mxCell>
        <mxCell id="9VxYBBlHyfwKnt9s5blo-5" style="line;strokeWidth=1;fillColor=none;align=left;verticalAlign=middle;spacingTop=-1;spacingLeft=3;spacingRight=3;rotatable=0;labelPosition=right;points=[];portConstraint=eastwest;strokeColor=inherit;" vertex="1" parent="9VxYBBlHyfwKnt9s5blo-4">
          <mxGeometry y="47.2" width="120" height="8" as="geometry" />
        </mxCell>
        <mxCell id="9VxYBBlHyfwKnt9s5blo-6" value="+mostrar()" style="text;strokeColor=none;fillColor=none;align=left;verticalAlign=top;spacingLeft=4;spacingRight=4;overflow=hidden;rotatable=0;points=[[0,0.5],[1,0.5]];portConstraint=eastwest;" vertex="1" parent="9VxYBBlHyfwKnt9s5blo-4">
          <mxGeometry y="55.2" width="120" height="47" as="geometry" />
        </mxCell>
        <mxCell id="9VxYBBlHyfwKnt9s5blo-7" value="RectanguloAdapter" style="swimlane;fontStyle=1;align=center;verticalAlign=top;childLayout=stackLayout;horizontal=1;startSize=45.333333333333336;horizontalStack=0;resizeParent=1;resizeParentMax=0;resizeLast=0;collapsible=0;marginBottom=0;" vertex="1" parent="1">
          <mxGeometry x="80" y="200" width="160" height="143.33333333333334" as="geometry" />
        </mxCell>
        <mxCell id="9VxYBBlHyfwKnt9s5blo-8" value="-viejo: RectanguloViejo" style="text;strokeColor=none;fillColor=none;align=left;verticalAlign=top;spacingLeft=4;spacingRight=4;overflow=hidden;rotatable=0;points=[[0,0.5],[1,0.5]];portConstraint=eastwest;" vertex="1" parent="9VxYBBlHyfwKnt9s5blo-7">
          <mxGeometry y="45.333333333333336" width="160" height="45" as="geometry" />
        </mxCell>
        <mxCell id="9VxYBBlHyfwKnt9s5blo-9" style="line;strokeWidth=1;fillColor=none;align=left;verticalAlign=middle;spacingTop=-1;spacingLeft=3;spacingRight=3;rotatable=0;labelPosition=right;points=[];portConstraint=eastwest;strokeColor=inherit;" vertex="1" parent="9VxYBBlHyfwKnt9s5blo-7">
          <mxGeometry y="90.33333333333334" width="160" height="8" as="geometry" />
        </mxCell>
        <mxCell id="9VxYBBlHyfwKnt9s5blo-10" value="+dibujar()" style="text;strokeColor=none;fillColor=none;align=left;verticalAlign=top;spacingLeft=4;spacingRight=4;overflow=hidden;rotatable=0;points=[[0,0.5],[1,0.5]];portConstraint=eastwest;" vertex="1" parent="9VxYBBlHyfwKnt9s5blo-7">
          <mxGeometry y="98.33333333333334" width="160" height="45" as="geometry" />
        </mxCell>
        <mxCell id="9VxYBBlHyfwKnt9s5blo-11" value="" style="curved=1;dashed=1;startArrow=block;startSize=16;startFill=0;endArrow=none;exitX=0.5;exitY=1;rounded=0;entryX=0.388;entryY=-0.014;entryDx=0;entryDy=0;entryPerimeter=0;" edge="1" parent="1" source="9VxYBBlHyfwKnt9s5blo-1" target="9VxYBBlHyfwKnt9s5blo-7">
          <mxGeometry relative="1" as="geometry">
            <Array as="points" />
            <mxPoint x="150" y="140" as="targetPoint" />
          </mxGeometry>
        </mxCell>
        <mxCell id="9VxYBBlHyfwKnt9s5blo-12" value="usa" style="curved=1;startArrow=none;endArrow=open;endSize=12;exitX=0.5;exitY=1;entryX=0.5;entryY=0;rounded=0;" edge="1" parent="1" source="9VxYBBlHyfwKnt9s5blo-7" target="9VxYBBlHyfwKnt9s5blo-4">
          <mxGeometry x="-0.0015" relative="1" as="geometry">
            <Array as="points" />
            <mxPoint as="offset" />
          </mxGeometry>
        </mxCell>
      </root>
    </mxGraphModel>
  </diagram>
</mxfile>
